<svg version="1.1" id="Layer_1" xmlns="http://www.w3.org/2000/svg" xmlns:xlink="http://www.w3.org/1999/xlink" x="0px" y="0px"
	 width="100%" viewBox="0 0 1200 600" enable-background="new 0 0 1200 600" xml:space="preserve">
<path fill="#ED1C2E" opacity="1.000000" stroke="none" 
	d="
M601.000000,1.000000 
	C800.953003,1.000000 1000.906006,1.000000 1200.929443,1.000000 
	C1200.929443,200.905991 1200.929443,400.812012 1200.929443,601.000000 
	C1001.307556,601.000000 801.615051,601.000000 601.462769,600.538757 
	C601.002014,400.385010 601.000977,200.692505 601.000000,1.000000 
M792.025696,202.334717 
	C788.875549,193.678162 785.725403,185.021606 782.574524,176.362976 
	C780.453613,176.362976 777.795532,176.362976 775.698181,176.362976 
	C776.830139,179.818634 779.368835,183.424194 778.658020,186.196640 
	C776.730835,193.713623 773.424988,200.877182 770.665771,208.180862 
	C770.303650,208.157074 769.941528,208.133270 769.579346,208.109467 
	C765.933411,197.570816 762.287415,187.032166 758.557495,176.250793 
	C756.572266,176.250793 753.875793,176.250793 752.054871,176.250793 
	C758.044067,191.903076 764.059448,207.623779 770.357361,224.082886 
	C774.381348,213.141022 778.109070,203.004761 782.184937,191.921829 
	C786.348022,202.997894 790.066223,212.890167 794.193298,223.870178 
	C800.240906,207.218857 805.866333,191.729752 811.539490,176.109436 
	C809.622620,176.109436 807.538025,176.109436 805.953918,176.109436 
	C802.267639,187.146683 798.670898,197.915863 794.786743,209.545609 
	C793.678040,206.725616 792.959167,204.897278 792.025696,202.334717 
M863.129517,210.377243 
	C867.199097,214.819397 871.268616,219.261566 876.148987,224.588715 
	C876.148987,207.554657 876.148987,191.852951 876.148987,176.087921 
	C874.459839,176.087921 872.873169,176.087921 870.989624,176.087921 
	C870.989624,187.519791 870.989624,198.710434 870.989624,209.901093 
	C869.033813,209.248123 868.102295,207.946640 867.054077,206.747116 
	C859.273438,197.843246 851.280884,189.115128 843.764160,179.994461 
	C840.682068,176.254654 837.495300,174.976913 833.704346,176.196472 
	C833.704346,191.788773 833.704346,207.141617 833.704346,222.605042 
	C836.127380,222.605042 837.882935,222.605042 839.460815,222.605042 
	C839.460815,209.988968 839.460815,197.629929 839.460815,184.230453 
	C847.584534,193.198746 855.123657,201.521698 863.129517,210.377243 
M1001.081543,182.830460 
	C1001.081543,196.066971 1001.081543,209.303497 1001.081543,222.500549 
	C1002.743042,222.500549 1004.627136,222.500549 1006.317444,222.500549 
	C1006.317444,209.829361 1006.317444,197.522079 1006.317444,184.459076 
	C1018.626648,197.988419 1030.365112,210.890411 1042.899170,224.666916 
	C1042.899170,207.530609 1042.899170,191.933365 1042.899170,176.122253 
	C1041.175537,176.122253 1039.622925,176.122253 1037.751709,176.122253 
	C1037.751709,187.730637 1037.751709,199.065689 1037.751709,211.270218 
	C1028.293945,200.549622 1019.266235,190.603882 1010.606201,180.347763 
	C1007.481262,176.646957 1004.303772,174.715652 999.898132,176.201691 
	C1000.301758,178.153534 1000.691528,180.038452 1001.081543,182.830460 
M758.890442,279.499969 
	C758.890442,271.365234 758.890442,263.230499 758.890442,254.851379 
	C757.221375,254.851379 755.641235,254.851379 753.766357,254.851379 
	C753.766357,266.494476 753.766357,277.864349 753.766357,290.087128 
	C744.231689,279.220917 735.119385,269.108704 726.359009,258.700287 
	C723.401123,255.185944 720.373169,253.820038 716.611694,255.104324 
	C716.611694,270.533508 716.611694,285.709778 716.611694,300.908569 
	C718.902954,300.908569 720.660095,300.908569 722.284058,300.908569 
	C722.284058,288.437500 722.284058,276.273010 722.284058,263.143677 
	C728.851379,270.367828 734.770630,276.861877 740.670349,283.373688 
	C746.488098,289.794861 752.286011,296.233917 758.890869,303.549225 
	C758.890869,294.823181 758.890869,287.661560 758.890442,279.499969 
M1017.111389,335.258301 
	C1007.671631,330.502991 998.653564,331.489044 990.583130,338.043335 
	C983.122986,344.101990 980.323608,352.249939 982.565491,361.688019 
	C985.068542,372.226044 994.228455,379.547333 1004.814026,379.923523 
	C1015.292603,380.295898 1024.852295,373.678436 1028.117798,363.791870 
	C1031.664795,353.052917 1027.806885,342.617889 1017.111389,335.258301 
M901.806641,368.585205 
	C908.468567,378.296844 918.187988,382.164368 928.449890,379.187012 
	C938.886169,376.159088 945.569458,367.858032 945.920105,357.487885 
	C946.257507,347.510712 940.510620,338.384583 931.431091,334.478973 
	C922.760498,330.749237 912.109558,332.974335 905.249329,339.948639 
	C897.829346,347.492004 896.463318,357.391266 901.806641,368.585205 
M1097.895630,276.624115 
	C1097.578613,274.661011 1097.440063,272.648834 1096.915771,270.742767 
	C1093.539429,258.470398 1081.065552,251.266998 1068.543579,254.280136 
	C1056.696655,257.130829 1048.637573,269.233521 1050.709351,281.062683 
	C1052.846313,293.264038 1063.116821,301.537201 1075.454956,300.995850 
	C1087.969482,300.446777 1096.993286,290.999298 1097.895630,276.624115 
M864.679810,352.823700 
	C873.215942,362.231079 881.752136,371.638458 891.254517,382.110657 
	C891.254517,364.920288 891.254517,349.253082 891.254517,333.578979 
	C889.611328,333.578979 888.016235,333.578979 886.631958,333.578979 
	C886.631958,345.380524 886.631958,356.908936 886.631958,369.355316 
	C876.922668,358.276947 867.625488,347.921387 858.657410,337.288208 
	C855.820557,333.924591 852.870667,332.637817 849.134155,333.738098 
	C849.134155,349.181519 849.134155,364.491821 849.134155,379.769104 
	C851.310059,379.769104 853.089966,379.769104 854.577637,379.769104 
	C854.577637,367.214661 854.577637,354.900940 854.577637,341.725189 
	C858.175842,345.682556 861.187012,348.994263 864.679810,352.823700 
M685.688049,301.018921 
	C696.802307,304.510559 708.543274,297.326843 708.688721,285.863434 
	C708.819153,275.583771 708.716187,265.301147 708.716187,254.895538 
	C706.470886,254.895538 704.395020,254.895538 702.657104,254.895538 
	C702.657104,265.511322 702.958069,275.831238 702.558228,286.123962 
	C702.259033,293.826111 695.642578,298.220703 688.127991,296.439056 
	C681.729187,294.921967 678.347107,290.535767 678.278809,283.284149 
	C678.188538,273.685120 678.256592,264.084564 678.256592,254.491959 
	C676.300171,254.491959 674.383362,254.491959 672.624207,254.491959 
	C672.624207,264.059174 672.609009,273.347870 672.628296,282.636536 
	C672.649719,292.958832 675.310791,296.889709 685.688049,301.018921 
M893.396240,175.975983 
	C890.095886,175.975983 886.795593,175.975983 884.041992,175.975983 
	C884.041992,191.659744 884.041992,206.953506 884.041992,222.989853 
	C889.977722,222.644608 895.648438,222.802399 901.137024,221.878464 
	C908.890076,220.573380 913.460144,213.349274 911.037415,205.828125 
	C909.883423,202.245819 906.671204,199.326492 904.302429,195.981339 
	C909.012024,191.740723 910.085632,186.915314 906.784058,181.553802 
	C903.912048,176.889862 899.502502,175.560379 893.396240,175.975983 
M970.493774,176.090439 
	C968.051270,176.090439 965.608765,176.090439 963.382446,176.090439 
	C963.382446,191.876862 963.382446,207.083282 963.382446,222.516586 
	C965.551208,222.516586 967.601807,222.516586 969.871582,222.516586 
	C969.871582,214.568466 969.871582,206.891937 969.871582,197.813858 
	C975.891663,205.616821 981.112366,212.377151 986.325623,219.143295 
	C989.783997,223.631866 990.793152,223.929855 996.057068,222.238068 
	C989.981689,214.673080 983.802063,206.978271 977.318909,198.905457 
	C978.953857,198.399231 979.900940,198.186081 980.784302,197.819305 
	C986.043518,195.635681 988.908875,190.565643 988.073975,184.993530 
	C987.380737,180.366333 983.436157,176.869980 977.926636,176.231735 
	C975.790344,175.984283 973.608948,176.126022 970.493774,176.090439 
M804.991455,375.134766 
	C804.866211,376.895386 804.740967,378.656036 804.607361,380.533936 
	C806.904663,380.533936 809.163696,380.533936 811.253540,380.533936 
	C811.253540,372.563080 811.253540,364.854401 811.253540,357.247772 
	C819.240112,357.247772 826.831726,357.247772 834.507080,357.247772 
	C834.507080,365.242310 834.507080,372.943848 834.507080,380.575989 
	C836.672058,380.575989 838.864868,380.575989 840.475830,380.575989 
	C840.475830,364.883820 840.475830,349.550751 840.475830,334.195740 
	C837.890137,334.195740 835.632935,334.195740 833.855530,334.195740 
	C833.855530,340.195618 833.855530,345.899200 833.855530,351.685547 
	C826.048950,351.685547 818.335449,351.685547 810.662231,351.685547 
	C810.662231,345.732086 810.662231,340.139069 810.662231,334.318756 
	C808.537048,334.318756 806.443420,334.318756 804.992188,334.318756 
	C804.992188,347.706696 804.992188,360.956573 804.991455,375.134766 
M890.777710,296.805603 
	C895.292053,302.661652 895.292053,302.661652 901.538391,301.390961 
	C895.409668,293.744049 889.156555,285.941895 882.757080,277.957214 
	C890.664917,275.328796 894.470032,270.373840 893.597473,264.476532 
	C892.697266,258.392456 887.946716,255.147293 879.815735,255.094437 
	C876.008850,255.069672 872.201721,255.090195 868.652710,255.090195 
	C868.652710,270.776794 868.652710,286.121490 868.652710,301.530975 
	C871.073242,301.530975 873.298767,301.530975 875.283569,301.530975 
	C875.283569,293.346832 875.283569,285.488312 875.283569,276.657562 
	C880.676697,283.682007 885.496582,289.959808 890.777710,296.805603 
M1054.093262,379.619232 
	C1060.978149,380.953339 1067.747192,380.512817 1073.999512,377.293549 
	C1075.614014,376.462250 1077.226562,374.063690 1077.382690,372.259003 
	C1077.833740,367.043884 1077.542114,361.764557 1077.542114,356.331116 
	C1075.228149,356.331116 1072.940186,356.331116 1070.435059,356.331116 
	C1070.745361,357.191193 1071.033569,357.924957 1071.276489,358.673492 
	C1075.350708,371.230957 1070.492310,377.056091 1057.543091,375.145325 
	C1047.576538,373.674713 1040.372559,364.559784 1041.249756,354.529999 
	C1042.172241,343.982605 1050.028931,336.706299 1060.573975,337.159149 
	C1064.642700,337.333862 1068.666504,338.558624 1072.795532,339.320618 
	C1074.378906,335.326569 1072.043945,333.626770 1068.128052,333.191772 
	C1065.324829,332.880341 1062.486328,332.622681 1059.673950,332.704041 
	C1046.423828,333.087219 1037.465210,340.740387 1035.819946,352.923279 
	C1034.112549,365.565796 1040.552124,375.282104 1054.093262,379.619232 
M949.235535,198.479919 
	C949.198792,201.810760 949.316650,205.152206 949.088806,208.469940 
	C948.753906,213.348587 945.919922,216.525818 941.364380,217.824081 
	C932.787720,220.268326 925.107300,214.415985 925.013428,205.444260 
	C924.911621,195.707565 924.990417,185.968979 924.990417,176.292816 
	C922.831299,176.292816 920.931396,176.292816 919.056885,176.292816 
	C919.056885,186.457397 918.987671,196.274994 919.076050,206.091171 
	C919.167358,216.226364 926.965515,223.397537 937.694275,223.380295 
	C948.094299,223.363602 955.090088,216.619110 955.162964,206.392059 
	C955.233887,196.441956 955.178284,186.490952 955.178284,176.325790 
	C953.362976,176.325790 951.300476,176.325790 949.235596,176.325790 
	C949.235596,183.561554 949.235596,190.524002 949.235535,198.479919 
M840.620300,263.499054 
	C840.248657,260.600769 841.203613,259.212769 844.438416,259.400146 
	C848.686340,259.646240 852.959229,259.460541 857.613281,259.460541 
	C857.538269,258.461243 857.423523,256.932281 857.317566,255.521011 
	C849.188843,255.521011 841.605652,255.521011 834.274048,255.521011 
	C834.274048,270.945343 834.274048,286.034088 834.274048,301.572906 
	C841.618286,301.572906 848.752380,301.585022 855.886536,301.568787 
	C860.946045,301.557281 860.945984,301.540222 861.506714,296.540039 
	C854.714172,296.540039 847.881531,296.540039 841.129395,296.540039 
	C841.129395,290.262115 841.129395,284.166199 841.129395,277.921326 
	C846.694641,277.921326 851.949890,277.921326 857.332153,277.921326 
	C857.332153,276.502258 857.332153,275.112061 857.332153,273.090393 
	C851.644714,273.090393 846.245850,273.090393 840.618958,273.090393 
	C840.618958,269.804321 840.618958,267.149506 840.620300,263.499054 
M1063.512451,198.569702 
	C1067.125854,198.569702 1070.739380,198.569702 1074.551636,198.569702 
	C1074.551636,197.378464 1074.551636,196.006653 1074.551636,194.031830 
	C1068.863281,194.031830 1063.478516,194.031830 1058.192627,194.031830 
	C1058.192627,189.162460 1058.192627,184.903442 1058.192627,180.777145 
	C1063.903687,180.777145 1069.279297,180.777145 1074.900757,180.777145 
	C1074.807373,179.402512 1074.710571,177.975128 1074.608643,176.473541 
	C1066.583984,176.473541 1058.858521,176.473541 1050.948364,176.473541 
	C1050.948364,191.907806 1050.948364,206.992920 1050.948364,222.355270 
	C1058.610107,222.355270 1066.087402,222.384109 1073.564331,222.344589 
	C1078.161255,222.320297 1078.413452,221.975616 1078.230835,217.453888 
	C1071.493408,217.453888 1064.779175,217.453888 1057.945801,217.453888 
	C1057.945801,211.350143 1057.945801,205.264374 1057.945801,198.842270 
	C1059.616821,198.742630 1061.068481,198.656082 1063.512451,198.569702 
M749.747681,206.007294 
	C747.489746,203.665436 745.502319,200.950180 742.908630,199.071869 
	C739.288940,196.450378 734.934143,194.810349 731.449402,192.049240 
	C729.531372,190.529510 727.469360,187.358826 727.811157,185.325668 
	C728.166504,183.212067 731.142761,180.343185 733.325439,179.991241 
	C737.388062,179.336197 741.706482,180.267715 746.081665,180.549316 
	C747.048218,177.388718 745.329529,175.642151 741.489014,175.625580 
	C738.346863,175.612015 735.139465,175.319595 732.075623,175.833847 
	C725.940186,176.863647 722.221802,180.487717 721.377563,185.526047 
	C720.588379,190.235748 723.013611,194.559280 728.324219,197.717346 
	C732.040100,199.927109 735.885071,201.927170 739.536621,204.235611 
	C742.718506,206.247147 744.651306,209.100510 743.543091,213.084793 
	C742.462891,216.968323 739.461731,218.940979 735.729553,218.912735 
	C731.054749,218.877335 726.385681,218.077637 721.472839,217.583557 
	C720.321533,220.831924 722.275635,222.683868 726.139343,222.868423 
	C729.958313,223.050858 733.836426,223.261459 737.612976,222.817169 
	C747.338135,221.673096 751.138855,216.529617 749.747681,206.007294 
M916.301331,298.108002 
	C912.280701,297.455353 908.260010,296.802734 904.132080,296.132660 
	C902.828552,299.890930 905.094238,301.739471 909.125488,301.782196 
	C913.592651,301.829590 918.115051,301.775330 922.521790,301.135101 
	C928.126038,300.320892 931.985718,297.105225 932.846252,291.185272 
	C933.686584,285.404572 931.243774,281.161560 926.305481,278.264893 
	C922.288391,275.908508 917.941895,273.982605 914.324341,271.127289 
	C912.288025,269.520081 909.786682,265.775238 910.425842,264.136261 
	C911.414612,261.600586 914.692749,258.871857 917.400452,258.365234 
	C920.838135,257.722015 924.676147,259.218292 928.586731,259.830475 
	C929.551819,256.937439 928.463562,254.683289 924.484558,254.584335 
	C920.861816,254.494263 917.155579,254.366791 913.619690,255.000748 
	C908.717834,255.879623 905.008484,258.723969 904.045471,263.940155 
	C903.044739,269.360626 905.570679,273.309784 910.038757,276.098145 
	C913.424011,278.210693 916.909729,280.164612 920.379822,282.138000 
	C924.278503,284.355164 927.205688,287.191193 925.953308,292.134979 
	C924.829163,296.572662 921.256897,297.809265 916.301331,298.108002 
M771.764099,341.079468 
	C779.153748,336.051636 786.933472,336.564362 794.750244,339.888947 
	C796.073059,335.913361 794.658142,334.033844 791.084290,333.714600 
	C787.621521,333.405243 784.092529,332.750092 780.685120,333.113922 
	C770.900696,334.158478 763.186462,338.785583 759.494141,348.211853 
	C756.008606,357.110199 757.296997,365.698792 763.866882,372.871857 
	C771.096680,380.765533 780.542114,381.654083 790.557251,380.626678 
	C795.373169,380.132599 797.399231,377.607788 797.972778,372.964172 
	C782.695740,378.438019 772.043152,376.435150 766.449036,367.234711 
	C761.489929,359.078674 763.344421,348.956696 771.764099,341.079468 
M799.910889,293.621796 
	C801.347595,296.464020 802.784302,299.306244 804.546021,302.791504 
	C812.273254,286.421967 819.613892,270.871307 827.072754,255.070251 
	C824.725952,255.070251 822.754150,255.070251 821.391235,255.070251 
	C815.776245,267.136932 810.315796,278.871643 804.550720,291.260864 
	C798.579407,278.692261 792.982971,266.912598 787.426697,255.217560 
	C785.341980,255.217560 783.140442,255.217560 781.031433,255.217560 
	C787.293701,267.949188 793.441589,280.448456 799.910889,293.621796 
M728.893860,378.495789 
	C730.086182,379.082306 731.265259,380.141937 732.473083,380.175751 
	C738.633240,380.348328 744.800964,380.273346 750.965942,380.250610 
	C756.031250,380.231934 756.073975,380.164764 756.179321,375.261780 
	C749.295898,375.261780 742.397583,375.261780 735.389282,375.261780 
	C735.389282,369.005432 735.389282,362.639099 735.389282,356.444763 
	C741.015381,356.444763 746.262085,356.444763 751.677063,356.444763 
	C751.677063,355.176208 751.677063,353.774567 751.677063,351.841064 
	C746.043335,351.841064 740.642578,351.841064 735.424683,351.841064 
	C735.424683,346.906830 735.424683,342.512146 735.424683,338.412384 
	C741.153625,338.412384 746.492432,338.412384 752.061401,338.412384 
	C751.983887,336.969604 751.908569,335.568024 751.829224,334.090851 
	C743.795776,334.090851 736.172974,334.090851 729.007568,334.090851 
	C729.007568,348.673828 729.007568,363.085297 728.893860,378.495789 
M699.712341,339.446991 
	C699.712341,352.892578 699.712341,366.338196 699.712341,379.816772 
	C702.027405,379.816772 704.319824,379.816772 706.380981,379.816772 
	C706.380981,365.736084 706.380981,351.860352 706.380981,338.126495 
	C711.275635,338.126495 715.861206,338.126495 722.318542,338.126495 
	C720.294678,336.018127 719.058044,333.587830 717.752869,333.550354 
	C706.979126,333.241150 696.192627,333.375519 685.311523,333.375519 
	C684.888550,335.496704 684.586853,337.009674 684.299133,338.452362 
	C689.672180,338.452362 694.581299,338.452362 699.712341,339.446991 
M1117.469360,254.670120 
	C1113.187256,254.670120 1108.905151,254.670120 1104.950073,254.670120 
	C1104.950073,270.396332 1104.950073,285.715698 1104.950073,300.977753 
	C1107.414551,300.977753 1109.366211,300.977753 1111.336426,300.977753 
	C1111.336426,293.203247 1111.336426,285.659821 1111.336426,277.744446 
	C1116.925781,277.744446 1122.333496,277.744446 1127.986206,277.744446 
	C1127.899170,276.103790 1127.833008,274.854126 1127.737549,273.054810 
	C1122.083740,273.054810 1116.674683,273.054810 1111.203125,273.054810 
	C1111.203125,268.095703 1111.203125,263.706451 1111.203125,259.344330 
	C1116.854248,259.344330 1122.216553,259.344330 1127.690918,259.344330 
	C1127.690918,258.022308 1127.690918,256.471283 1127.690918,254.670486 
	C1124.403442,254.670486 1121.421143,254.670486 1117.469360,254.670120 
M1100.432495,348.979462 
	C1099.837646,349.767578 1099.242798,350.555725 1098.298950,351.806305 
	C1094.516724,345.629669 1090.904419,339.730530 1087.305542,333.853394 
	C1085.141602,333.853394 1082.773682,333.853394 1079.425659,333.853394 
	C1091.139404,347.529785 1099.017578,361.707764 1093.893921,379.819611 
	C1096.835815,379.819611 1098.737671,379.819611 1100.644531,379.819611 
	C1100.644531,374.448120 1100.951172,369.298859 1100.561157,364.202911 
	C1100.143555,358.747101 1101.667480,354.260284 1104.933228,349.921112 
	C1108.829468,344.744293 1112.194702,339.167755 1116.035034,333.396057 
	C1113.402832,333.396057 1111.590210,333.396057 1110.074219,333.396057 
	C1106.908691,338.533600 1103.880981,343.447540 1100.432495,348.979462 
M950.545593,258.523987 
	C951.040039,258.854034 951.542542,259.481018 952.027771,259.468018 
	C956.575317,259.345764 961.119995,259.113861 965.717346,258.911438 
	C965.717346,273.456360 965.717346,287.151031 965.717346,300.798523 
	C968.223389,300.798523 970.491394,300.798523 972.406433,300.798523 
	C972.406433,286.774170 972.406433,273.032135 972.406433,259.222168 
	C977.249207,259.222168 981.940735,259.222168 986.723816,259.222168 
	C986.777039,256.914490 987.291870,254.533203 983.529419,254.577225 
	C973.704285,254.692245 963.874329,254.514618 954.053772,254.757095 
	C952.924316,254.785004 951.842163,256.731934 950.545593,258.523987 
M1026.220703,255.977478 
	C1026.298096,255.829926 1026.415771,255.688660 1026.440063,255.532837 
	C1026.459473,255.408310 1026.377563,255.154266 1026.319458,255.147858 
	C1024.384399,254.934250 1022.446716,254.743576 1020.958862,254.594559 
	C1016.968323,260.926514 1013.238586,266.844696 1009.153076,273.327393 
	C1005.112793,266.708191 1001.514648,260.813324 998.076477,255.180511 
	C995.710083,255.180511 993.519592,255.180511 990.107605,255.180511 
	C1002.340393,268.793243 1009.314636,283.295288 1004.681274,301.389954 
	C1007.784973,301.252197 1009.668823,301.168579 1011.211243,301.100098 
	C1011.211243,293.694855 1011.135071,286.879395 1011.274231,280.068329 
	C1011.302734,278.674591 1011.868713,277.119110 1012.646667,275.942047 
	C1016.958801,269.417969 1021.413025,262.987823 1026.220703,255.977478 
M959.932922,374.548859 
	C959.932922,360.838440 959.932922,347.127991 959.932922,333.600586 
	C957.509827,333.600586 955.318420,333.600586 953.503357,333.600586 
	C953.503357,349.188232 953.503357,364.373566 953.503357,379.916901 
	C960.637085,379.916901 967.928467,379.921936 975.219910,379.915222 
	C980.544739,379.910278 980.544739,379.903381 981.347717,375.446655 
	C974.492615,375.446655 967.459106,375.446655 959.932922,374.548859 
M817.817017,221.897491 
	C820.069641,222.076508 822.322205,222.255508 824.571472,222.434265 
	C824.571472,206.739395 824.571472,191.573776 824.571472,176.505341 
	C822.043396,176.505341 819.689209,176.505341 817.716736,176.505341 
	C817.716736,191.627457 817.716736,206.380219 817.817017,221.897491 
M938.064514,256.652710 
	C938.300659,257.953186 938.737183,259.252869 938.742126,260.554199 
	C938.792480,273.943176 938.773010,287.332367 938.773010,300.774933 
	C940.674194,300.774933 942.889526,300.774933 944.981323,300.774933 
	C944.981323,285.399231 944.981323,270.359344 944.981323,254.597839 
	C942.569397,254.967880 940.234863,255.326065 938.064514,256.652710 
M774.049744,263.675720 
	C774.245789,260.905334 774.441833,258.134949 774.655579,255.114304 
	C772.374268,255.114304 769.950439,255.114304 767.685913,255.114304 
	C767.685913,270.374817 767.685913,285.507751 767.685913,300.788147 
	C769.994324,300.788147 772.394592,300.788147 774.049683,300.788147 
	C774.049683,288.538696 774.049683,276.587128 774.049744,263.675720 
z"/>
<path fill="#010101" opacity="1.000000" stroke="none" 
	d="
M600.538757,1.000000 
	C601.000977,200.692505 601.002014,400.385010 601.001465,600.538757 
	C401.046967,601.000000 201.093933,601.000000 1.070453,601.000000 
	C1.070453,401.093964 1.070453,201.187881 1.070453,1.000000 
	C200.692413,1.000000 400.384979,1.000000 600.538757,1.000000 
M253.213913,111.822296 
	C254.645691,108.024254 256.077454,104.226219 257.979309,99.181236 
	C270.957214,133.914459 283.498657,167.479614 296.357971,201.895508 
	C297.191315,199.635483 297.642914,198.392822 298.106995,197.154861 
	C315.997009,149.433868 331.234497,100.720322 350.805725,53.815521 
	C345.258209,53.815521 338.828522,53.815521 332.970764,53.815521 
	C332.720978,57.221924 333.076202,60.585548 332.150085,63.548714 
	C328.635132,74.795174 324.701477,85.910675 320.931946,97.077698 
	C313.518585,119.039360 306.110291,141.002731 298.468628,163.650787 
	C297.751984,162.145447 297.266571,161.314636 296.945740,160.424500 
	C285.573334,128.871185 274.131958,97.342110 262.976532,65.712173 
	C261.742798,62.214100 262.155609,58.135315 261.796661,54.237804 
	C254.421036,54.237804 246.217712,54.237804 236.644760,54.237804 
	C245.463547,61.013874 247.095459,70.522873 250.642700,78.981804 
	C251.483032,80.985680 251.420380,83.889023 250.654343,85.965988 
	C242.037064,109.329857 233.202332,132.613541 224.422089,155.917267 
	C223.552277,158.225861 222.656540,160.524673 221.474503,163.605591 
	C220.736954,161.728821 220.345993,160.819489 220.018341,159.887848 
	C209.275757,129.343338 198.453461,98.826271 187.898331,68.217072 
	C186.388641,63.839043 186.175568,59.013889 185.325119,54.183769 
	C178.439209,54.183769 170.386185,54.183769 162.720230,54.183769 
	C164.769623,57.519447 167.398529,60.590710 168.729218,64.147644 
	C185.366379,108.618828 201.811981,153.161652 218.328461,197.678055 
	C218.846573,199.074524 219.598114,200.384399 220.475754,202.228165 
	C231.486984,171.883682 242.246979,142.231583 253.213913,111.822296 
M526.268555,162.500015 
	C526.241089,144.341431 525.897339,126.176262 526.275452,108.026131 
	C526.650452,90.026863 524.159973,71.918945 528.275208,54.054741 
	C523.026794,54.054741 518.014893,54.054741 513.660767,54.054741 
	C516.399902,92.656471 514.096985,130.914734 515.078613,170.439270 
	C513.015198,168.127991 512.012878,167.023163 511.029755,165.901398 
	C479.305878,129.702682 447.597717,93.490135 415.812164,57.345669 
	C414.506836,55.861362 412.537262,54.151245 410.773529,54.027824 
	C404.850281,53.613335 398.880035,53.870323 392.027313,53.870323 
	C396.728424,58.489632 397.039276,63.626415 397.024261,69.042198 
	C396.924438,105.025558 397.050659,141.009628 396.908569,176.992706 
	C396.879150,184.441040 396.031128,191.886139 395.574738,199.105804 
	C400.165375,199.105804 405.742676,199.105804 410.957794,199.105804 
	C410.234924,193.093323 408.985779,187.385818 408.954163,181.671600 
	C408.766205,147.688080 408.859894,113.703011 408.858948,79.718460 
	C408.858917,78.296097 408.858948,76.873734 408.858948,74.279289 
	C448.259155,117.870468 486.860809,160.578156 526.269897,204.179169 
	C526.269897,189.734650 526.269897,176.617340 526.268555,162.500015 
M223.773849,449.732880 
	C253.159241,482.267334 282.544647,514.801758 312.767517,548.263428 
	C312.767517,545.010925 312.770325,543.216675 312.767120,541.422424 
	C312.724274,517.428955 312.279755,493.427673 312.750000,469.444336 
	C313.219116,445.518066 310.161957,421.465088 314.753601,397.506256 
	C310.035248,397.506256 305.096985,397.506256 300.462860,397.506256 
	C303.401367,435.978271 300.920044,474.312714 301.444244,512.742493 
	C299.777252,511.690765 298.673096,510.516022 297.610687,509.304688 
	C265.977112,473.236542 234.357712,437.155914 202.680023,401.126587 
	C201.445938,399.722961 199.716751,397.919067 198.121353,397.817047 
	C192.034821,397.427856 185.908554,397.659882 181.021332,397.659882 
	C182.010986,402.775543 183.732986,407.617706 183.761856,412.469910 
	C183.986908,450.291595 183.954849,488.115509 183.812378,525.937988 
	C183.790985,531.618958 182.782379,537.296204 182.245468,542.820557 
	C186.759521,542.820557 192.285400,542.820557 196.448029,542.820557 
	C193.370499,501.415131 195.997589,460.259521 194.809052,417.700531 
	C205.040497,429.021240 214.166321,439.118652 223.773849,449.732880 
M168.387543,371.911774 
	C171.698898,371.593811 175.031586,371.420288 178.318130,370.934448 
	C200.073746,367.718628 213.131134,353.540619 214.470840,331.776337 
	C215.579559,313.764832 207.060104,300.530243 190.239914,294.116486 
	C188.281219,293.369598 186.341782,292.572235 184.017288,291.648865 
	C187.213852,289.604675 190.041977,287.872406 192.790512,286.021973 
	C197.897858,282.583466 201.794327,278.144257 203.681931,272.175781 
	C210.154388,251.710297 194.970993,227.850830 173.551743,226.369736 
	C158.196777,225.307983 142.709244,226.163223 126.220207,226.163223 
	C132.597610,233.910522 131.426468,242.537460 131.432449,250.944183 
	C131.456497,284.751343 131.534882,318.559021 131.361664,352.365265 
	C131.328400,358.856750 130.251160,365.342834 129.646118,371.934082 
	C141.457825,371.934082 154.436478,371.934082 168.387543,371.911774 
M334.066986,305.499969 
	C333.924469,313.489899 334.639099,321.608032 333.467102,329.443970 
	C330.739166,347.683105 315.879395,360.303070 297.608856,360.983948 
	C277.339539,361.739349 259.772675,349.663422 255.052170,331.678284 
	C254.547531,329.755676 254.016907,327.760254 254.013153,325.797638 
	C253.949585,292.582275 253.967636,259.366791 253.967636,226.145599 
	C248.908371,226.145599 242.828247,226.145599 237.207306,226.145599 
	C237.516159,231.539337 238.047821,236.667603 238.063828,241.797470 
	C238.149033,269.123779 238.043884,296.450684 238.130890,323.776978 
	C238.176941,338.242340 243.713486,350.398956 254.709946,359.769562 
	C267.809296,370.932220 283.370056,375.036438 300.254333,373.843658 
	C326.116577,372.016602 351.611450,354.218414 350.817444,320.510406 
	C350.185913,293.698578 350.688293,266.860016 350.687286,240.033310 
	C350.687134,235.455673 350.687256,230.878052 350.687256,226.098679 
	C345.146698,226.098679 338.699768,226.098679 332.899933,226.098679 
	C333.295837,231.838074 333.977386,237.424698 334.013885,243.015549 
	C334.147675,263.509613 334.066925,284.005066 334.066986,305.499969 
M486.443878,371.996094 
	C486.153259,371.381592 486.001312,370.630280 485.550720,370.173676 
	C480.781036,365.340240 475.506470,360.925751 471.243896,355.685760 
	C457.486206,338.773346 444.136688,321.529449 430.529846,304.493195 
	C427.844879,301.131531 424.714600,298.125580 421.334442,294.462158 
	C423.056061,294.462158 423.873871,294.458191 424.691620,294.462738 
	C443.067596,294.564911 458.351013,280.672913 459.925415,262.435608 
	C461.527161,243.881317 450.117004,229.084808 430.617432,226.968979 
	C416.452820,225.432022 402.029510,226.276093 387.721375,226.069489 
	C385.519501,226.037689 383.316803,226.065048 382.230042,226.065048 
	C382.945465,233.043533 384.125000,239.397964 384.160736,245.758804 
	C384.350769,279.568359 384.320221,313.379730 384.208710,347.189941 
	C384.181763,355.362549 383.559082,363.533142 383.216461,371.561584 
	C389.083679,371.561584 395.769897,371.561584 401.550964,371.561584 
	C398.548462,344.349091 401.040375,317.316681 400.519806,290.093323 
	C402.640808,291.373718 404.427673,292.758087 405.767914,294.488373 
	C424.416779,318.565308 443.085815,342.627716 461.522156,366.866943 
	C464.391693,370.639648 467.181732,372.751190 472.134064,372.193359 
	C476.575043,371.693176 481.116211,372.082489 486.443878,371.996094 
M120.556442,189.303131 
	C100.945351,194.243011 81.946815,193.904495 64.309555,182.290253 
	C64.309555,187.737656 64.309555,192.711182 64.309555,197.669617 
	C65.368515,198.118011 66.266045,198.565659 67.206871,198.886215 
	C79.634804,203.120651 92.570374,202.861755 105.305702,202.023026 
	C114.976906,201.386093 124.871101,199.741791 134.022064,196.643570 
	C147.268951,192.158585 156.324173,182.832535 158.071335,168.166245 
	C159.972656,152.205780 156.170792,138.319321 142.150589,128.802460 
	C136.935684,125.262619 131.355225,122.260353 125.933228,119.026741 
	C114.375519,112.133896 102.329185,105.934586 91.368668,98.196671 
	C76.210571,87.495361 77.600815,68.787514 93.465248,59.144051 
	C102.659805,53.554989 112.647896,53.247875 122.927376,54.457523 
	C130.767380,55.380108 137.642380,58.538692 143.938751,63.841251 
	C144.734802,46.609291 144.717056,46.588982 128.036957,44.655235 
	C127.540482,44.597679 127.047424,44.499825 126.549690,44.465477 
	C111.499008,43.426952 96.597435,43.197151 82.806503,50.922970 
	C59.833076,63.792923 56.770714,92.354622 76.773170,109.450653 
	C80.915550,112.991119 85.644432,115.902016 90.314011,118.758072 
	C102.643562,126.299179 115.436920,133.134109 127.409355,141.195160 
	C146.974335,154.368301 141.270035,182.557556 120.556442,189.303131 
M359.517487,397.916168 
	C355.206848,397.916168 350.896240,397.916168 347.534943,397.916168 
	C348.203888,403.049072 349.397430,408.037628 349.418304,413.031067 
	C349.576538,450.861084 349.549805,488.692200 349.455139,526.522644 
	C349.441406,532.005737 348.758453,537.487122 348.388672,542.918091 
	C375.402557,542.918091 403.160004,542.918091 431.122314,542.918091 
	C432.558472,537.858582 433.937134,533.001526 434.989105,529.295532 
	C426.696198,530.288452 418.565308,531.733459 410.384186,532.122559 
	C400.074890,532.612915 389.724579,532.240784 379.391968,532.240784 
	C375.115112,532.240784 370.838257,532.240784 366.474304,532.240784 
	C366.474304,510.259705 366.474304,488.858612 366.474304,466.846588 
	C384.421143,468.306335 402.271332,464.631561 419.785431,469.639435 
	C419.785431,465.411438 419.785431,461.122375 419.785431,456.231140 
	C401.732513,456.231140 383.862183,456.231140 366.024109,456.231140 
	C366.024109,440.012421 366.024109,424.399780 366.024109,408.344727 
	C378.868866,408.344727 391.491150,408.156647 404.103180,408.434265 
	C409.384491,408.550568 414.644043,409.654602 419.704559,410.283600 
	C419.704559,407.003998 419.704559,402.586182 419.704559,397.916168 
	C399.790802,397.916168 380.150909,397.916168 359.517487,397.916168 
M367.941895,170.500000 
	C367.941895,161.506256 367.659912,152.501724 368.004211,143.521179 
	C368.606171,127.819954 365.991394,111.979759 369.970551,96.269623 
	C364.350616,96.269623 358.749023,96.269623 354.347931,96.269623 
	C354.783051,104.047722 355.514435,111.718117 355.582581,119.394409 
	C355.758575,139.212418 355.732910,159.033691 355.591370,178.852264 
	C355.542694,185.672363 354.912933,192.488327 354.552063,199.242111 
	C359.087982,199.242111 364.357544,199.242111 369.734070,199.242111 
	C366.531006,190.010468 368.516144,180.677200 367.941895,170.500000 
M100.500237,489.242523 
	C105.058502,491.473267 107.231766,487.248535 108.510239,484.944489 
	C109.679398,482.837494 108.277657,479.167572 107.633553,476.269775 
	C107.426880,475.339996 105.557289,474.808838 105.286667,473.856964 
	C104.943535,472.650055 105.454842,471.200165 105.597694,469.855042 
	C106.907021,470.168427 108.371269,470.225677 109.468597,470.889496 
	C110.145943,471.299225 110.002426,473.044800 110.681496,473.476593 
	C112.928696,474.905579 115.606415,477.288879 117.700577,476.921478 
	C120.427841,476.443054 123.805138,474.160980 124.904335,471.745636 
	C125.707962,469.979797 123.838356,466.251434 122.115051,464.340485 
	C120.940956,463.038574 117.931984,462.942963 115.799950,463.095886 
	C114.106796,463.217316 112.556953,464.730621 110.829353,465.235352 
	C109.973633,465.485352 108.860779,464.855225 107.864258,464.623291 
	C108.225456,463.606781 108.310455,462.265564 109.021706,461.660614 
	C109.810593,460.989532 111.157181,460.824127 112.285545,460.728271 
	C116.965919,460.330627 118.520287,457.268585 118.496208,453.200745 
	C118.480141,450.486420 117.868500,447.775665 117.500587,444.883942 
	C116.644539,445.176575 116.038994,445.439911 115.406654,445.591309 
	C105.550209,447.951263 105.594063,447.949463 105.249481,457.979889 
	C105.219887,458.841461 104.150070,460.244568 103.420189,460.343964 
	C102.677048,460.445160 101.193947,459.363434 101.032021,458.590698 
	C100.701935,457.015564 101.018974,455.298706 101.110497,453.642517 
	C101.353081,449.252197 98.994110,446.841827 95.014359,445.796448 
	C92.496071,445.134918 89.919434,444.695496 86.937592,444.065308 
	C86.937592,448.472046 85.539146,453.548920 87.324722,456.958191 
	C89.168671,460.478973 94.108032,462.378571 97.693253,464.987396 
	C97.478271,465.531433 97.263283,466.075470 97.048302,466.619476 
	C95.556740,466.154999 93.875298,465.986420 92.607597,465.173004 
	C87.976585,462.201569 84.063507,463.128265 81.494881,468.074371 
	C80.678581,469.646179 79.948105,471.262604 79.155899,472.905151 
	C82.287682,475.887543 85.149910,479.678711 89.864738,477.844269 
	C92.210777,476.931427 93.741379,474.076477 95.882950,472.411407 
	C96.782555,471.711975 98.308784,471.818481 99.550163,471.558594 
	C99.425926,472.728027 99.718857,474.212128 99.111595,475.017242 
	C94.147644,481.598541 94.176216,482.948273 100.500237,489.242523 
M514.680481,459.103302 
	C515.137451,454.314667 515.594482,449.526031 516.124268,443.974487 
	C513.527954,445.008453 512.371338,445.662994 511.131165,445.932068 
	C501.826294,447.950684 501.821716,447.990845 501.797546,457.509460 
	C501.794647,458.641724 500.999084,459.885010 500.260803,460.836151 
	C500.027405,461.136871 498.235535,460.851685 498.105377,460.491699 
	C497.715973,459.414703 497.522369,458.114990 497.739258,456.996613 
	C498.762451,451.719910 497.172272,448.065826 492.919861,447.022034 
	C490.301147,446.379242 487.566101,446.210175 484.794189,445.815735 
	C484.794189,446.719940 484.873199,447.227997 484.782318,447.703613 
	C483.423767,454.811890 483.028595,461.283783 493.020569,461.927063 
	C493.688171,461.970032 494.235168,463.885956 494.838226,464.930756 
	C493.693024,465.210052 492.448822,465.910950 491.425690,465.670624 
	C489.858337,465.302460 488.503540,464.108795 486.951294,463.580719 
	C483.576385,462.432587 480.673218,462.987061 479.031342,466.550568 
	C477.603973,469.648621 475.563721,472.354218 480.115662,475.322296 
	C485.808502,479.034302 489.127014,478.690002 492.434753,472.663483 
	C493.053284,471.536652 494.374146,470.628113 495.580292,470.078156 
	C496.026215,469.874817 497.704254,470.975800 497.719757,471.513672 
	C497.753326,472.677368 497.258881,473.970093 496.642242,475.009399 
	C495.902802,476.255615 494.544312,477.162598 493.918915,478.443573 
	C491.425537,483.550568 492.552979,485.667572 500.173950,490.806335 
	C508.131775,485.180267 508.367401,483.518433 503.044830,475.142365 
	C502.467346,474.233612 503.229401,472.473633 503.397949,470.838684 
	C507.407898,474.032196 510.182526,477.871155 513.488953,478.402832 
	C516.604370,478.903778 520.280029,475.920349 524.013916,474.340851 
	C522.953247,472.472534 522.626648,471.919128 522.320496,471.354645 
	C517.726074,462.884369 517.486267,462.849335 508.835907,466.720306 
	C507.788940,467.188812 506.301178,466.672333 505.017731,466.612366 
	C504.902039,466.122375 504.786316,465.632355 504.670624,465.142365 
	C507.840759,463.311005 511.010864,461.479614 514.680481,459.103302 
z"/>
<path fill="#FEF5F6" opacity="1.000000" stroke="none" 
	d="
M792.133057,202.701813 
	C792.959167,204.897278 793.678040,206.725616 794.786743,209.545609 
	C798.670898,197.915863 802.267639,187.146683 805.953918,176.109436 
	C807.538025,176.109436 809.622620,176.109436 811.539490,176.109436 
	C805.866333,191.729752 800.240906,207.218857 794.193298,223.870178 
	C790.066223,212.890167 786.348022,202.997894 782.184937,191.921829 
	C778.109070,203.004761 774.381348,213.141022 770.357361,224.082886 
	C764.059448,207.623779 758.044067,191.903076 752.054871,176.250793 
	C753.875793,176.250793 756.572266,176.250793 758.557495,176.250793 
	C762.287415,187.032166 765.933411,197.570816 769.579346,208.109467 
	C769.941528,208.133270 770.303650,208.157074 770.665771,208.180862 
	C773.424988,200.877182 776.730835,193.713623 778.658020,186.196640 
	C779.368835,183.424194 776.830139,179.818634 775.698181,176.362976 
	C777.795532,176.362976 780.453613,176.362976 782.574524,176.362976 
	C785.725403,185.021606 788.875549,193.678162 792.133057,202.701813 
z"/>
<path fill="#FEF0F1" opacity="1.000000" stroke="none" 
	d="
M862.896118,210.110962 
	C855.123657,201.521698 847.584534,193.198746 839.460815,184.230453 
	C839.460815,197.629929 839.460815,209.988968 839.460815,222.605042 
	C837.882935,222.605042 836.127380,222.605042 833.704346,222.605042 
	C833.704346,207.141617 833.704346,191.788773 833.704346,176.196472 
	C837.495300,174.976913 840.682068,176.254654 843.764160,179.994461 
	C851.280884,189.115128 859.273438,197.843246 867.054077,206.747116 
	C868.102295,207.946640 869.033813,209.248123 870.989624,209.901093 
	C870.989624,198.710434 870.989624,187.519791 870.989624,176.087921 
	C872.873169,176.087921 874.459839,176.087921 876.148987,176.087921 
	C876.148987,191.852951 876.148987,207.554657 876.148987,224.588715 
	C871.268616,219.261566 867.199097,214.819397 862.896118,210.110962 
z"/>
<path fill="#FEF0F1" opacity="1.000000" stroke="none" 
	d="
M1001.081421,182.376923 
	C1000.691528,180.038452 1000.301758,178.153534 999.898132,176.201691 
	C1004.303772,174.715652 1007.481262,176.646957 1010.606201,180.347763 
	C1019.266235,190.603882 1028.293945,200.549622 1037.751709,211.270218 
	C1037.751709,199.065689 1037.751709,187.730637 1037.751709,176.122253 
	C1039.622925,176.122253 1041.175537,176.122253 1042.899170,176.122253 
	C1042.899170,191.933365 1042.899170,207.530609 1042.899170,224.666916 
	C1030.365112,210.890411 1018.626648,197.988419 1006.317444,184.459076 
	C1006.317444,197.522079 1006.317444,209.829361 1006.317444,222.500549 
	C1004.627136,222.500549 1002.743042,222.500549 1001.081543,222.500549 
	C1001.081543,209.303497 1001.081543,196.066971 1001.081421,182.376923 
z"/>
<path fill="#FEF1F2" opacity="1.000000" stroke="none" 
	d="
M758.890625,279.999939 
	C758.890869,287.661560 758.890869,294.823181 758.890869,303.549225 
	C752.286011,296.233917 746.488098,289.794861 740.670349,283.373688 
	C734.770630,276.861877 728.851379,270.367828 722.284058,263.143677 
	C722.284058,276.273010 722.284058,288.437500 722.284058,300.908569 
	C720.660095,300.908569 718.902954,300.908569 716.611694,300.908569 
	C716.611694,285.709778 716.611694,270.533508 716.611694,255.104324 
	C720.373169,253.820038 723.401123,255.185944 726.359009,258.700287 
	C735.119385,269.108704 744.231689,279.220917 753.766357,290.087128 
	C753.766357,277.864349 753.766357,266.494476 753.766357,254.851379 
	C755.641235,254.851379 757.221375,254.851379 758.890442,254.851379 
	C758.890442,263.230499 758.890442,271.365234 758.890625,279.999939 
z"/>
<path fill="#FEF3F4" opacity="1.000000" stroke="none" 
	d="
M1017.417480,335.467590 
	C1027.806885,342.617889 1031.664795,353.052917 1028.117798,363.791870 
	C1024.852295,373.678436 1015.292603,380.295898 1004.814026,379.923523 
	C994.228455,379.547333 985.068542,372.226044 982.565491,361.688019 
	C980.323608,352.249939 983.122986,344.101990 990.583130,338.043335 
	C998.653564,331.489044 1007.671631,330.502991 1017.417480,335.467590 
M1006.410645,375.366486 
	C1007.399109,375.244629 1008.405762,375.204285 1009.373230,374.988342 
	C1019.791382,372.663177 1026.046997,360.654572 1022.499512,349.830658 
	C1019.163147,339.650604 1008.616272,334.489410 999.044189,338.352570 
	C991.554321,341.375366 986.927490,350.228912 988.085266,359.322998 
	C989.233459,368.342285 995.718750,374.311554 1006.410645,375.366486 
z"/>
<path fill="#FEF3F4" opacity="1.000000" stroke="none" 
	d="
M901.594849,368.275665 
	C896.463318,357.391266 897.829346,347.492004 905.249329,339.948639 
	C912.109558,332.974335 922.760498,330.749237 931.431091,334.478973 
	C940.510620,338.384583 946.257507,347.510712 945.920105,357.487885 
	C945.569458,367.858032 938.886169,376.159088 928.449890,379.187012 
	C918.187988,382.164368 908.468567,378.296844 901.594849,368.275665 
M907.288940,346.074036 
	C906.651489,347.602539 905.861633,349.086639 905.401428,350.666779 
	C902.452515,360.789825 907.188477,371.262115 916.177185,374.646851 
	C924.574402,377.808838 933.632996,374.022308 937.908630,365.563110 
	C942.468140,356.542480 939.516602,345.170532 931.287048,340.050293 
	C923.338745,335.105011 913.802185,337.294617 907.288940,346.074036 
z"/>
<path fill="#FEF4F5" opacity="1.000000" stroke="none" 
	d="
M1097.897583,277.060852 
	C1096.993286,290.999298 1087.969482,300.446777 1075.454956,300.995850 
	C1063.116821,301.537201 1052.846313,293.264038 1050.709351,281.062683 
	C1048.637573,269.233521 1056.696655,257.130829 1068.543579,254.280136 
	C1081.065552,251.266998 1093.539429,258.470398 1096.915771,270.742767 
	C1097.440063,272.648834 1097.578613,274.661011 1097.897583,277.060852 
M1090.402344,269.446899 
	C1089.950928,268.560608 1089.570190,267.629120 1089.036987,266.795044 
	C1083.956299,258.847473 1074.528320,256.053253 1066.445435,260.072449 
	C1058.057983,264.243134 1054.141235,275.632629 1057.842529,285.088226 
	C1061.250000,293.793213 1070.060791,298.384888 1078.731323,295.974121 
	C1088.932861,293.137695 1094.051514,282.150665 1090.402344,269.446899 
z"/>
<path fill="#FFF9FA" opacity="1.000000" stroke="none" 
	d="
M864.438965,352.564819 
	C861.187012,348.994263 858.175842,345.682556 854.577637,341.725189 
	C854.577637,354.900940 854.577637,367.214661 854.577637,379.769104 
	C853.089966,379.769104 851.310059,379.769104 849.134155,379.769104 
	C849.134155,364.491821 849.134155,349.181519 849.134155,333.738098 
	C852.870667,332.637817 855.820557,333.924591 858.657410,337.288208 
	C867.625488,347.921387 876.922668,358.276947 886.631958,369.355316 
	C886.631958,356.908936 886.631958,345.380524 886.631958,333.578979 
	C888.016235,333.578979 889.611328,333.578979 891.254517,333.578979 
	C891.254517,349.253082 891.254517,364.920288 891.254517,382.110657 
	C881.752136,371.638458 873.215942,362.231079 864.438965,352.564819 
z"/>
<path fill="#FEF5F6" opacity="1.000000" stroke="none" 
	d="
M685.293457,300.940735 
	C675.310791,296.889709 672.649719,292.958832 672.628296,282.636536 
	C672.609009,273.347870 672.624207,264.059174 672.624207,254.491959 
	C674.383362,254.491959 676.300171,254.491959 678.256592,254.491959 
	C678.256592,264.084564 678.188538,273.685120 678.278809,283.284149 
	C678.347107,290.535767 681.729187,294.921967 688.127991,296.439056 
	C695.642578,298.220703 702.259033,293.826111 702.558228,286.123962 
	C702.958069,275.831238 702.657104,265.511322 702.657104,254.895538 
	C704.395020,254.895538 706.470886,254.895538 708.716187,254.895538 
	C708.716187,265.301147 708.819153,275.583771 708.688721,285.863434 
	C708.543274,297.326843 696.802307,304.510559 685.293457,300.940735 
z"/>
<path fill="#FEF4F4" opacity="1.000000" stroke="none" 
	d="
M893.864441,175.976013 
	C899.502502,175.560379 903.912048,176.889862 906.784058,181.553802 
	C910.085632,186.915314 909.012024,191.740723 904.302429,195.981339 
	C906.671204,199.326492 909.883423,202.245819 911.037415,205.828125 
	C913.460144,213.349274 908.890076,220.573380 901.137024,221.878464 
	C895.648438,222.802399 889.977722,222.644608 884.041992,222.989853 
	C884.041992,206.953506 884.041992,191.659744 884.041992,175.975983 
	C886.795593,175.975983 890.095886,175.975983 893.864441,175.976013 
M894.189331,199.201263 
	C891.736267,198.940399 890.462708,199.771683 890.555176,202.510635 
	C890.701294,206.836807 890.494507,211.175385 890.662292,215.499969 
	C890.705627,216.617523 891.295898,218.266220 892.137207,218.702652 
	C895.387451,220.388748 903.078369,216.843140 904.954529,213.057358 
	C907.195618,208.535172 905.373657,202.856354 900.785645,200.758423 
	C899.008667,199.945877 896.958679,199.730621 894.189331,199.201263 
M902.718018,186.728851 
	C900.783875,180.361679 898.397217,179.115997 890.302673,180.462128 
	C890.302673,185.468964 890.302673,190.528152 890.302673,195.569199 
	C898.498474,196.190918 901.386597,194.276230 902.718018,186.728851 
z"/>
<path fill="#FEF3F4" opacity="1.000000" stroke="none" 
	d="
M970.970947,176.090454 
	C973.608948,176.126022 975.790344,175.984283 977.926636,176.231735 
	C983.436157,176.869980 987.380737,180.366333 988.073975,184.993530 
	C988.908875,190.565643 986.043518,195.635681 980.784302,197.819305 
	C979.900940,198.186081 978.953857,198.399231 977.318909,198.905457 
	C983.802063,206.978271 989.981689,214.673080 996.057068,222.238068 
	C990.793152,223.929855 989.783997,223.631866 986.325623,219.143295 
	C981.112366,212.377151 975.891663,205.616821 969.871582,197.813858 
	C969.871582,206.891937 969.871582,214.568466 969.871582,222.516586 
	C967.601807,222.516586 965.551208,222.516586 963.382446,222.516586 
	C963.382446,207.083282 963.382446,191.876862 963.382446,176.090439 
	C965.608765,176.090439 968.051270,176.090439 970.970947,176.090454 
M982.056091,184.922241 
	C979.625305,179.590469 976.299072,178.371384 969.862183,180.547485 
	C969.862183,185.230438 969.862183,189.956100 969.862183,194.634949 
	C978.367554,196.084686 982.124390,193.303452 982.056091,184.922241 
z"/>
<path fill="#FEF3F4" opacity="1.000000" stroke="none" 
	d="
M804.991821,374.670593 
	C804.992188,360.956573 804.992188,347.706696 804.992188,334.318756 
	C806.443420,334.318756 808.537048,334.318756 810.662231,334.318756 
	C810.662231,340.139069 810.662231,345.732086 810.662231,351.685547 
	C818.335449,351.685547 826.048950,351.685547 833.855530,351.685547 
	C833.855530,345.899200 833.855530,340.195618 833.855530,334.195740 
	C835.632935,334.195740 837.890137,334.195740 840.475830,334.195740 
	C840.475830,349.550751 840.475830,364.883820 840.475830,380.575989 
	C838.864868,380.575989 836.672058,380.575989 834.507080,380.575989 
	C834.507080,372.943848 834.507080,365.242310 834.507080,357.247772 
	C826.831726,357.247772 819.240112,357.247772 811.253540,357.247772 
	C811.253540,364.854401 811.253540,372.563080 811.253540,380.533936 
	C809.163696,380.533936 806.904663,380.533936 804.607361,380.533936 
	C804.740967,378.656036 804.866211,376.895386 804.991821,374.670593 
z"/>
<path fill="#FEF2F3" opacity="1.000000" stroke="none" 
	d="
M890.547119,296.521606 
	C885.496582,289.959808 880.676697,283.682007 875.283569,276.657562 
	C875.283569,285.488312 875.283569,293.346832 875.283569,301.530975 
	C873.298767,301.530975 871.073242,301.530975 868.652710,301.530975 
	C868.652710,286.121490 868.652710,270.776794 868.652710,255.090195 
	C872.201721,255.090195 876.008850,255.069672 879.815735,255.094437 
	C887.946716,255.147293 892.697266,258.392456 893.597473,264.476532 
	C894.470032,270.373840 890.664917,275.328796 882.757080,277.957214 
	C889.156555,285.941895 895.409668,293.744049 901.538391,301.390961 
	C895.292053,302.661652 895.292053,302.661652 890.547119,296.521606 
M874.880493,270.396973 
	C875.306763,271.661255 875.384155,273.682800 876.216248,274.066101 
	C881.374573,276.442474 888.343811,271.015411 887.677429,265.350983 
	C886.994873,259.549042 882.042175,257.235992 874.881714,259.607300 
	C874.881714,262.817383 874.881714,266.126404 874.880493,270.396973 
z"/>
<path fill="#FEF5F6" opacity="1.000000" stroke="none" 
	d="
M1053.711426,379.480835 
	C1040.552124,375.282104 1034.112549,365.565796 1035.819946,352.923279 
	C1037.465210,340.740387 1046.423828,333.087219 1059.673950,332.704041 
	C1062.486328,332.622681 1065.324829,332.880341 1068.128052,333.191772 
	C1072.043945,333.626770 1074.378906,335.326569 1072.795532,339.320618 
	C1068.666504,338.558624 1064.642700,337.333862 1060.573975,337.159149 
	C1050.028931,336.706299 1042.172241,343.982605 1041.249756,354.529999 
	C1040.372559,364.559784 1047.576538,373.674713 1057.543091,375.145325 
	C1070.492310,377.056091 1075.350708,371.230957 1071.276489,358.673492 
	C1071.033569,357.924957 1070.745361,357.191193 1070.435059,356.331116 
	C1072.940186,356.331116 1075.228149,356.331116 1077.542114,356.331116 
	C1077.542114,361.764557 1077.833740,367.043884 1077.382690,372.259003 
	C1077.226562,374.063690 1075.614014,376.462250 1073.999512,377.293549 
	C1067.747192,380.512817 1060.978149,380.953339 1053.711426,379.480835 
z"/>
<path fill="#FEF5F6" opacity="1.000000" stroke="none" 
	d="
M949.235596,197.983185 
	C949.235596,190.524002 949.235596,183.561554 949.235596,176.325790 
	C951.300476,176.325790 953.362976,176.325790 955.178284,176.325790 
	C955.178284,186.490952 955.233887,196.441956 955.162964,206.392059 
	C955.090088,216.619110 948.094299,223.363602 937.694275,223.380295 
	C926.965515,223.397537 919.167358,216.226364 919.076050,206.091171 
	C918.987671,196.274994 919.056885,186.457397 919.056885,176.292816 
	C920.931396,176.292816 922.831299,176.292816 924.990417,176.292816 
	C924.990417,185.968979 924.911621,195.707565 925.013428,205.444260 
	C925.107300,214.415985 932.787720,220.268326 941.364380,217.824081 
	C945.919922,216.525818 948.753906,213.348587 949.088806,208.469940 
	C949.316650,205.152206 949.198792,201.810760 949.235596,197.983185 
z"/>
<path fill="#FDECED" opacity="1.000000" stroke="none" 
	d="
M840.619629,263.996887 
	C840.618958,267.149506 840.618958,269.804321 840.618958,273.090393 
	C846.245850,273.090393 851.644714,273.090393 857.332153,273.090393 
	C857.332153,275.112061 857.332153,276.502258 857.332153,277.921326 
	C851.949890,277.921326 846.694641,277.921326 841.129395,277.921326 
	C841.129395,284.166199 841.129395,290.262115 841.129395,296.540039 
	C847.881531,296.540039 854.714172,296.540039 861.506714,296.540039 
	C860.945984,301.540222 860.946045,301.557281 855.886536,301.568787 
	C848.752380,301.585022 841.618286,301.572906 834.274048,301.572906 
	C834.274048,286.034088 834.274048,270.945343 834.274048,255.521011 
	C841.605652,255.521011 849.188843,255.521011 857.317566,255.521011 
	C857.423523,256.932281 857.538269,258.461243 857.613281,259.460541 
	C852.959229,259.460541 848.686340,259.646240 844.438416,259.400146 
	C841.203613,259.212769 840.248657,260.600769 840.619629,263.996887 
z"/>
<path fill="#FEECEE" opacity="1.000000" stroke="none" 
	d="
M1063.016235,198.569611 
	C1061.068481,198.656082 1059.616821,198.742630 1057.945801,198.842270 
	C1057.945801,205.264374 1057.945801,211.350143 1057.945801,217.453888 
	C1064.779175,217.453888 1071.493408,217.453888 1078.230835,217.453888 
	C1078.413452,221.975616 1078.161255,222.320297 1073.564331,222.344589 
	C1066.087402,222.384109 1058.610107,222.355270 1050.948364,222.355270 
	C1050.948364,206.992920 1050.948364,191.907806 1050.948364,176.473541 
	C1058.858521,176.473541 1066.583984,176.473541 1074.608643,176.473541 
	C1074.710571,177.975128 1074.807373,179.402512 1074.900757,180.777145 
	C1069.279297,180.777145 1063.903687,180.777145 1058.192627,180.777145 
	C1058.192627,184.903442 1058.192627,189.162460 1058.192627,194.031830 
	C1063.478516,194.031830 1068.863281,194.031830 1074.551636,194.031830 
	C1074.551636,196.006653 1074.551636,197.378464 1074.551636,198.569702 
	C1070.739380,198.569702 1067.125854,198.569702 1063.016235,198.569611 
z"/>
<path fill="#FEF4F4" opacity="1.000000" stroke="none" 
	d="
M749.846924,206.374268 
	C751.138855,216.529617 747.338135,221.673096 737.612976,222.817169 
	C733.836426,223.261459 729.958313,223.050858 726.139343,222.868423 
	C722.275635,222.683868 720.321533,220.831924 721.472839,217.583557 
	C726.385681,218.077637 731.054749,218.877335 735.729553,218.912735 
	C739.461731,218.940979 742.462891,216.968323 743.543091,213.084793 
	C744.651306,209.100510 742.718506,206.247147 739.536621,204.235611 
	C735.885071,201.927170 732.040100,199.927109 728.324219,197.717346 
	C723.013611,194.559280 720.588379,190.235748 721.377563,185.526047 
	C722.221802,180.487717 725.940186,176.863647 732.075623,175.833847 
	C735.139465,175.319595 738.346863,175.612015 741.489014,175.625580 
	C745.329529,175.642151 747.048218,177.388718 746.081665,180.549316 
	C741.706482,180.267715 737.388062,179.336197 733.325439,179.991241 
	C731.142761,180.343185 728.166504,183.212067 727.811157,185.325668 
	C727.469360,187.358826 729.531372,190.529510 731.449402,192.049240 
	C734.934143,194.810349 739.288940,196.450378 742.908630,199.071869 
	C745.502319,200.950180 747.489746,203.665436 749.846924,206.374268 
z"/>
<path fill="#FEF4F5" opacity="1.000000" stroke="none" 
	d="
M916.736816,298.103149 
	C921.256897,297.809265 924.829163,296.572662 925.953308,292.134979 
	C927.205688,287.191193 924.278503,284.355164 920.379822,282.138000 
	C916.909729,280.164612 913.424011,278.210693 910.038757,276.098145 
	C905.570679,273.309784 903.044739,269.360626 904.045471,263.940155 
	C905.008484,258.723969 908.717834,255.879623 913.619690,255.000748 
	C917.155579,254.366791 920.861816,254.494263 924.484558,254.584335 
	C928.463562,254.683289 929.551819,256.937439 928.586731,259.830475 
	C924.676147,259.218292 920.838135,257.722015 917.400452,258.365234 
	C914.692749,258.871857 911.414612,261.600586 910.425842,264.136261 
	C909.786682,265.775238 912.288025,269.520081 914.324341,271.127289 
	C917.941895,273.982605 922.288391,275.908508 926.305481,278.264893 
	C931.243774,281.161560 933.686584,285.404572 932.846252,291.185272 
	C931.985718,297.105225 928.126038,300.320892 922.521790,301.135101 
	C918.115051,301.775330 913.592651,301.829590 909.125488,301.782196 
	C905.094238,301.739471 902.828552,299.890930 904.132080,296.132660 
	C908.260010,296.802734 912.280701,297.455353 916.736816,298.103149 
z"/>
<path fill="#FEF3F4" opacity="1.000000" stroke="none" 
	d="
M771.462646,341.297607 
	C763.344421,348.956696 761.489929,359.078674 766.449036,367.234711 
	C772.043152,376.435150 782.695740,378.438019 797.972778,372.964172 
	C797.399231,377.607788 795.373169,380.132599 790.557251,380.626678 
	C780.542114,381.654083 771.096680,380.765533 763.866882,372.871857 
	C757.296997,365.698792 756.008606,357.110199 759.494141,348.211853 
	C763.186462,338.785583 770.900696,334.158478 780.685120,333.113922 
	C784.092529,332.750092 787.621521,333.405243 791.084290,333.714600 
	C794.658142,334.033844 796.073059,335.913361 794.750244,339.888947 
	C786.933472,336.564362 779.153748,336.051636 771.462646,341.297607 
z"/>
<path fill="#FEF4F5" opacity="1.000000" stroke="none" 
	d="
M799.750244,293.284760 
	C793.441589,280.448456 787.293701,267.949188 781.031433,255.217560 
	C783.140442,255.217560 785.341980,255.217560 787.426697,255.217560 
	C792.982971,266.912598 798.579407,278.692261 804.550720,291.260864 
	C810.315796,278.871643 815.776245,267.136932 821.391235,255.070251 
	C822.754150,255.070251 824.725952,255.070251 827.072754,255.070251 
	C819.613892,270.871307 812.273254,286.421967 804.546021,302.791504 
	C802.784302,299.306244 801.347595,296.464020 799.750244,293.284760 
z"/>
<path fill="#FFFBFB" opacity="1.000000" stroke="none" 
	d="
M728.950684,377.996277 
	C729.007568,363.085297 729.007568,348.673828 729.007568,334.090851 
	C736.172974,334.090851 743.795776,334.090851 751.829224,334.090851 
	C751.908569,335.568024 751.983887,336.969604 752.061401,338.412384 
	C746.492432,338.412384 741.153625,338.412384 735.424683,338.412384 
	C735.424683,342.512146 735.424683,346.906830 735.424683,351.841064 
	C740.642578,351.841064 746.043335,351.841064 751.677063,351.841064 
	C751.677063,353.774567 751.677063,355.176208 751.677063,356.444763 
	C746.262085,356.444763 741.015381,356.444763 735.389282,356.444763 
	C735.389282,362.639099 735.389282,369.005432 735.389282,375.261780 
	C742.397583,375.261780 749.295898,375.261780 756.179321,375.261780 
	C756.073975,380.164764 756.031250,380.231934 750.965942,380.250610 
	C744.800964,380.273346 738.633240,380.348328 732.473083,380.175751 
	C731.265259,380.141937 730.086182,379.082306 728.950684,377.996277 
z"/>
<path fill="#FEF5F6" opacity="1.000000" stroke="none" 
	d="
M699.601440,338.949677 
	C694.581299,338.452362 689.672180,338.452362 684.299133,338.452362 
	C684.586853,337.009674 684.888550,335.496704 685.311523,333.375519 
	C696.192627,333.375519 706.979126,333.241150 717.752869,333.550354 
	C719.058044,333.587830 720.294678,336.018127 722.318542,338.126495 
	C715.861206,338.126495 711.275635,338.126495 706.380981,338.126495 
	C706.380981,351.860352 706.380981,365.736084 706.380981,379.816772 
	C704.319824,379.816772 702.027405,379.816772 699.712341,379.816772 
	C699.712341,366.338196 699.712341,352.892578 699.601440,338.949677 
z"/>
<path fill="#FEF2F3" opacity="1.000000" stroke="none" 
	d="
M1117.954102,254.670303 
	C1121.421143,254.670486 1124.403442,254.670486 1127.690918,254.670486 
	C1127.690918,256.471283 1127.690918,258.022308 1127.690918,259.344330 
	C1122.216553,259.344330 1116.854248,259.344330 1111.203125,259.344330 
	C1111.203125,263.706451 1111.203125,268.095703 1111.203125,273.054810 
	C1116.674683,273.054810 1122.083740,273.054810 1127.737549,273.054810 
	C1127.833008,274.854126 1127.899170,276.103790 1127.986206,277.744446 
	C1122.333496,277.744446 1116.925781,277.744446 1111.336426,277.744446 
	C1111.336426,285.659821 1111.336426,293.203247 1111.336426,300.977753 
	C1109.366211,300.977753 1107.414551,300.977753 1104.950073,300.977753 
	C1104.950073,285.715698 1104.950073,270.396332 1104.950073,254.670120 
	C1108.905151,254.670120 1113.187256,254.670120 1117.954102,254.670303 
z"/>
<path fill="#FEF1F2" opacity="1.000000" stroke="none" 
	d="
M1100.642822,348.670471 
	C1103.880981,343.447540 1106.908691,338.533600 1110.074219,333.396057 
	C1111.590210,333.396057 1113.402832,333.396057 1116.035034,333.396057 
	C1112.194702,339.167755 1108.829468,344.744293 1104.933228,349.921112 
	C1101.667480,354.260284 1100.143555,358.747101 1100.561157,364.202911 
	C1100.951172,369.298859 1100.644531,374.448120 1100.644531,379.819611 
	C1098.737671,379.819611 1096.835815,379.819611 1093.893921,379.819611 
	C1099.017578,361.707764 1091.139404,347.529785 1079.425659,333.853394 
	C1082.773682,333.853394 1085.141602,333.853394 1087.305542,333.853394 
	C1090.904419,339.730530 1094.516724,345.629669 1098.298950,351.806305 
	C1099.242798,350.555725 1099.837646,349.767578 1100.642822,348.670471 
z"/>
<path fill="#FFFCFC" opacity="1.000000" stroke="none" 
	d="
M950.641846,258.156555 
	C951.842163,256.731934 952.924316,254.785004 954.053772,254.757095 
	C963.874329,254.514618 973.704285,254.692245 983.529419,254.577225 
	C987.291870,254.533203 986.777039,256.914490 986.723816,259.222168 
	C981.940735,259.222168 977.249207,259.222168 972.406433,259.222168 
	C972.406433,273.032135 972.406433,286.774170 972.406433,300.798523 
	C970.491394,300.798523 968.223389,300.798523 965.717346,300.798523 
	C965.717346,287.151031 965.717346,273.456360 965.717346,258.911438 
	C961.119995,259.113861 956.575317,259.345764 952.027771,259.468018 
	C951.542542,259.481018 951.040039,258.854034 950.641846,258.156555 
z"/>
<path fill="#FEF7F8" opacity="1.000000" stroke="none" 
	d="
M1026.019531,256.251465 
	C1021.413025,262.987823 1016.958801,269.417969 1012.646667,275.942047 
	C1011.868713,277.119110 1011.302734,278.674591 1011.274231,280.068329 
	C1011.135071,286.879395 1011.211243,293.694855 1011.211243,301.100098 
	C1009.668823,301.168579 1007.784973,301.252197 1004.681274,301.389954 
	C1009.314636,283.295288 1002.340393,268.793243 990.107605,255.180511 
	C993.519592,255.180511 995.710083,255.180511 998.076477,255.180511 
	C1001.514648,260.813324 1005.112793,266.708191 1009.153076,273.327393 
	C1013.238586,266.844696 1016.968323,260.926514 1020.958862,254.594559 
	C1022.446716,254.743576 1024.384399,254.934250 1026.319458,255.147858 
	C1026.377563,255.154266 1026.459473,255.408310 1026.440063,255.532837 
	C1026.415771,255.688660 1026.298096,255.829926 1026.019531,256.251465 
z"/>
<path fill="#FEF0F1" opacity="1.000000" stroke="none" 
	d="
M960.179260,374.997742 
	C967.459106,375.446655 974.492615,375.446655 981.347717,375.446655 
	C980.544739,379.903381 980.544739,379.910278 975.219910,379.915222 
	C967.928467,379.921936 960.637085,379.916901 953.503357,379.916901 
	C953.503357,364.373566 953.503357,349.188232 953.503357,333.600586 
	C955.318420,333.600586 957.509827,333.600586 959.932922,333.600586 
	C959.932922,347.127991 959.932922,360.838440 960.179260,374.997742 
z"/>
<path fill="#FEEEEF" opacity="1.000000" stroke="none" 
	d="
M817.766846,221.515244 
	C817.716736,206.380219 817.716736,191.627457 817.716736,176.505341 
	C819.689209,176.505341 822.043396,176.505341 824.571472,176.505341 
	C824.571472,191.573776 824.571472,206.739395 824.571472,222.434265 
	C822.322205,222.255508 820.069641,222.076508 817.766846,221.515244 
z"/>
<path fill="#FEF0F1" opacity="1.000000" stroke="none" 
	d="
M937.982422,256.168457 
	C940.234863,255.326065 942.569397,254.967880 944.981323,254.597839 
	C944.981323,270.359344 944.981323,285.399231 944.981323,300.774933 
	C942.889526,300.774933 940.674194,300.774933 938.773010,300.774933 
	C938.773010,287.332367 938.792480,273.943176 938.742126,260.554199 
	C938.737183,259.252869 938.300659,257.953186 937.982422,256.168457 
z"/>
<path fill="#FEF7F8" opacity="1.000000" stroke="none" 
	d="
M774.049683,264.155640 
	C774.049683,276.587128 774.049683,288.538696 774.049683,300.788147 
	C772.394592,300.788147 769.994324,300.788147 767.685913,300.788147 
	C767.685913,285.507751 767.685913,270.374817 767.685913,255.114304 
	C769.950439,255.114304 772.374268,255.114304 774.655579,255.114304 
	C774.441833,258.134949 774.245789,260.905334 774.049683,264.155640 
z"/>
<path fill="#FBFBFB" opacity="1.000000" stroke="none" 
	d="
M253.110443,112.200882 
	C242.246979,142.231583 231.486984,171.883682 220.475754,202.228165 
	C219.598114,200.384399 218.846573,199.074524 218.328461,197.678055 
	C201.811981,153.161652 185.366379,108.618828 168.729218,64.147644 
	C167.398529,60.590710 164.769623,57.519447 162.720230,54.183769 
	C170.386185,54.183769 178.439209,54.183769 185.325119,54.183769 
	C186.175568,59.013889 186.388641,63.839043 187.898331,68.217072 
	C198.453461,98.826271 209.275757,129.343338 220.018341,159.887848 
	C220.345993,160.819489 220.736954,161.728821 221.474503,163.605591 
	C222.656540,160.524673 223.552277,158.225861 224.422089,155.917267 
	C233.202332,132.613541 242.037064,109.329857 250.654343,85.965988 
	C251.420380,83.889023 251.483032,80.985680 250.642700,78.981804 
	C247.095459,70.522873 245.463547,61.013874 236.644760,54.237804 
	C246.217712,54.237804 254.421036,54.237804 261.796661,54.237804 
	C262.155609,58.135315 261.742798,62.214100 262.976532,65.712173 
	C274.131958,97.342110 285.573334,128.871185 296.945740,160.424500 
	C297.266571,161.314636 297.751984,162.145447 298.468628,163.650787 
	C306.110291,141.002731 313.518585,119.039360 320.931946,97.077698 
	C324.701477,85.910675 328.635132,74.795174 332.150085,63.548714 
	C333.076202,60.585548 332.720978,57.221924 332.970764,53.815521 
	C338.828522,53.815521 345.258209,53.815521 350.805725,53.815521 
	C331.234497,100.720322 315.997009,149.433868 298.106995,197.154861 
	C297.642914,198.392822 297.191315,199.635483 296.357971,201.895508 
	C283.498657,167.479614 270.957214,133.914459 257.979309,99.181236 
	C256.077454,104.226219 254.645691,108.024254 253.110443,112.200882 
z"/>
<path fill="#FCFCFC" opacity="1.000000" stroke="none" 
	d="
M526.269226,163.000031 
	C526.269897,176.617340 526.269897,189.734650 526.269897,204.179169 
	C486.860809,160.578156 448.259155,117.870468 408.858948,74.279289 
	C408.858948,76.873734 408.858917,78.296097 408.858948,79.718460 
	C408.859894,113.703011 408.766205,147.688080 408.954163,181.671600 
	C408.985779,187.385818 410.234924,193.093323 410.957794,199.105804 
	C405.742676,199.105804 400.165375,199.105804 395.574738,199.105804 
	C396.031128,191.886139 396.879150,184.441040 396.908569,176.992706 
	C397.050659,141.009628 396.924438,105.025558 397.024261,69.042198 
	C397.039276,63.626415 396.728424,58.489632 392.027313,53.870323 
	C398.880035,53.870323 404.850281,53.613335 410.773529,54.027824 
	C412.537262,54.151245 414.506836,55.861362 415.812164,57.345669 
	C447.597717,93.490135 479.305878,129.702682 511.029755,165.901398 
	C512.012878,167.023163 513.015198,168.127991 515.078613,170.439270 
	C514.096985,130.914734 516.399902,92.656471 513.660767,54.054741 
	C518.014893,54.054741 523.026794,54.054741 528.275208,54.054741 
	C524.159973,71.918945 526.650452,90.026863 526.275452,108.026131 
	C525.897339,126.176262 526.241089,144.341431 526.269226,163.000031 
z"/>
<path fill="#FAFAFA" opacity="1.000000" stroke="none" 
	d="
M223.532990,449.474457 
	C214.166321,439.118652 205.040497,429.021240 194.809052,417.700531 
	C195.997589,460.259521 193.370499,501.415131 196.448029,542.820557 
	C192.285400,542.820557 186.759521,542.820557 182.245468,542.820557 
	C182.782379,537.296204 183.790985,531.618958 183.812378,525.937988 
	C183.954849,488.115509 183.986908,450.291595 183.761856,412.469910 
	C183.732986,407.617706 182.010986,402.775543 181.021332,397.659882 
	C185.908554,397.659882 192.034821,397.427856 198.121353,397.817047 
	C199.716751,397.919067 201.445938,399.722961 202.680023,401.126587 
	C234.357712,437.155914 265.977112,473.236542 297.610687,509.304688 
	C298.673096,510.516022 299.777252,511.690765 301.444244,512.742493 
	C300.920044,474.312714 303.401367,435.978271 300.462860,397.506256 
	C305.096985,397.506256 310.035248,397.506256 314.753601,397.506256 
	C310.161957,421.465088 313.219116,445.518066 312.750000,469.444336 
	C312.279755,493.427673 312.724274,517.428955 312.767120,541.422424 
	C312.770325,543.216675 312.767517,545.010925 312.767517,548.263428 
	C282.544647,514.801758 253.159241,482.267334 223.532990,449.474457 
z"/>
<path fill="#F9F9F9" opacity="1.000000" stroke="none" 
	d="
M167.901337,371.922913 
	C154.436478,371.934082 141.457825,371.934082 129.646118,371.934082 
	C130.251160,365.342834 131.328400,358.856750 131.361664,352.365265 
	C131.534882,318.559021 131.456497,284.751343 131.432449,250.944183 
	C131.426468,242.537460 132.597610,233.910522 126.220207,226.163223 
	C142.709244,226.163223 158.196777,225.307983 173.551743,226.369736 
	C194.970993,227.850830 210.154388,251.710297 203.681931,272.175781 
	C201.794327,278.144257 197.897858,282.583466 192.790512,286.021973 
	C190.041977,287.872406 187.213852,289.604675 184.017288,291.648865 
	C186.341782,292.572235 188.281219,293.369598 190.239914,294.116486 
	C207.060104,300.530243 215.579559,313.764832 214.470840,331.776337 
	C213.131134,353.540619 200.073746,367.718628 178.318130,370.934448 
	C175.031586,371.420288 171.698898,371.593811 167.901337,371.922913 
M199.082413,325.876953 
	C198.415344,318.865234 196.109573,312.429932 190.793945,307.719208 
	C178.349258,296.690796 163.462341,296.864807 148.144867,298.339264 
	C148.144867,319.722321 148.144867,340.311249 148.144867,360.954437 
	C155.368896,363.842194 162.642365,363.362122 169.848450,361.857361 
	C187.640411,358.141998 201.310104,346.721619 199.082413,325.876953 
M147.330460,266.499634 
	C147.330460,273.620300 147.330460,280.740967 147.330460,288.823730 
	C155.616028,288.223358 163.487839,288.380280 171.055634,286.939911 
	C183.463882,284.578217 190.027557,275.989685 190.494629,263.302826 
	C190.949524,250.946487 184.232819,240.293106 172.647491,237.627060 
	C164.585968,235.771957 156.037979,236.030853 147.330475,235.314346 
	C147.330475,246.235443 147.330475,255.867599 147.330460,266.499634 
z"/>
<path fill="#F9F9F9" opacity="1.000000" stroke="none" 
	d="
M334.066986,305.000000 
	C334.066925,284.005066 334.147675,263.509613 334.013885,243.015549 
	C333.977386,237.424698 333.295837,231.838074 332.899933,226.098679 
	C338.699768,226.098679 345.146698,226.098679 350.687256,226.098679 
	C350.687256,230.878052 350.687134,235.455673 350.687286,240.033310 
	C350.688293,266.860016 350.185913,293.698578 350.817444,320.510406 
	C351.611450,354.218414 326.116577,372.016602 300.254333,373.843658 
	C283.370056,375.036438 267.809296,370.932220 254.709946,359.769562 
	C243.713486,350.398956 238.176941,338.242340 238.130890,323.776978 
	C238.043884,296.450684 238.149033,269.123779 238.063828,241.797470 
	C238.047821,236.667603 237.516159,231.539337 237.207306,226.145599 
	C242.828247,226.145599 248.908371,226.145599 253.967636,226.145599 
	C253.967636,259.366791 253.949585,292.582275 254.013153,325.797638 
	C254.016907,327.760254 254.547531,329.755676 255.052170,331.678284 
	C259.772675,349.663422 277.339539,361.739349 297.608856,360.983948 
	C315.879395,360.303070 330.739166,347.683105 333.467102,329.443970 
	C334.639099,321.608032 333.924469,313.489899 334.066986,305.000000 
z"/>
<path fill="#F9F9F9" opacity="1.000000" stroke="none" 
	d="
M486.028503,372.037720 
	C481.116211,372.082489 476.575043,371.693176 472.134064,372.193359 
	C467.181732,372.751190 464.391693,370.639648 461.522156,366.866943 
	C443.085815,342.627716 424.416779,318.565308 405.767914,294.488373 
	C404.427673,292.758087 402.640808,291.373718 400.519806,290.093323 
	C401.040375,317.316681 398.548462,344.349091 401.550964,371.561584 
	C395.769897,371.561584 389.083679,371.561584 383.216461,371.561584 
	C383.559082,363.533142 384.181763,355.362549 384.208710,347.189941 
	C384.320221,313.379730 384.350769,279.568359 384.160736,245.758804 
	C384.125000,239.397964 382.945465,233.043533 382.230042,226.065048 
	C383.316803,226.065048 385.519501,226.037689 387.721375,226.069489 
	C402.029510,226.276093 416.452820,225.432022 430.617432,226.968979 
	C450.117004,229.084808 461.527161,243.881317 459.925415,262.435608 
	C458.351013,280.672913 443.067596,294.564911 424.691620,294.462738 
	C423.873871,294.458191 423.056061,294.462158 421.334442,294.462158 
	C424.714600,298.125580 427.844879,301.131531 430.529846,304.493195 
	C444.136688,321.529449 457.486206,338.773346 471.243896,355.685760 
	C475.506470,360.925751 480.781036,365.340240 485.550720,370.173676 
	C486.001312,370.630280 486.153259,371.381592 486.028503,372.037720 
M400.744171,242.664825 
	C400.744171,257.568024 400.744171,272.471222 400.744171,287.547150 
	C412.057587,288.636017 422.412872,288.044922 431.929688,282.729584 
	C440.126617,278.151398 444.548828,271.119263 444.317535,261.522064 
	C444.091400,252.139420 442.122528,243.410812 432.894592,238.734726 
	C424.170624,234.314026 414.824982,233.621811 405.223450,235.531998 
	C401.594635,236.253952 400.077667,238.084641 400.744171,242.664825 
z"/>
<path fill="#FBFBFB" opacity="1.000000" stroke="none" 
	d="
M120.926315,189.174011 
	C141.270035,182.557556 146.974335,154.368301 127.409355,141.195160 
	C115.436920,133.134109 102.643562,126.299179 90.314011,118.758072 
	C85.644432,115.902016 80.915550,112.991119 76.773170,109.450653 
	C56.770714,92.354622 59.833076,63.792923 82.806503,50.922970 
	C96.597435,43.197151 111.499008,43.426952 126.549690,44.465477 
	C127.047424,44.499825 127.540482,44.597679 128.036957,44.655235 
	C144.717056,46.588982 144.734802,46.609291 143.938751,63.841251 
	C137.642380,58.538692 130.767380,55.380108 122.927376,54.457523 
	C112.647896,53.247875 102.659805,53.554989 93.465248,59.144051 
	C77.600815,68.787514 76.210571,87.495361 91.368668,98.196671 
	C102.329185,105.934586 114.375519,112.133896 125.933228,119.026741 
	C131.355225,122.260353 136.935684,125.262619 142.150589,128.802460 
	C156.170792,138.319321 159.972656,152.205780 158.071335,168.166245 
	C156.324173,182.832535 147.268951,192.158585 134.022064,196.643570 
	C124.871101,199.741791 114.976906,201.386093 105.305702,202.023026 
	C92.570374,202.861755 79.634804,203.120651 67.206871,198.886215 
	C66.266045,198.565659 65.368515,198.118011 64.309555,197.669617 
	C64.309555,192.711182 64.309555,187.737656 64.309555,182.290253 
	C81.946815,193.904495 100.945351,194.243011 120.926315,189.174011 
z"/>
<path fill="#FBFBFB" opacity="1.000000" stroke="none" 
	d="
M360.014282,397.916168 
	C380.150909,397.916168 399.790802,397.916168 419.704559,397.916168 
	C419.704559,402.586182 419.704559,407.003998 419.704559,410.283600 
	C414.644043,409.654602 409.384491,408.550568 404.103180,408.434265 
	C391.491150,408.156647 378.868866,408.344727 366.024109,408.344727 
	C366.024109,424.399780 366.024109,440.012421 366.024109,456.231140 
	C383.862183,456.231140 401.732513,456.231140 419.785431,456.231140 
	C419.785431,461.122375 419.785431,465.411438 419.785431,469.639435 
	C402.271332,464.631561 384.421143,468.306335 366.474304,466.846588 
	C366.474304,488.858612 366.474304,510.259705 366.474304,532.240784 
	C370.838257,532.240784 375.115112,532.240784 379.391968,532.240784 
	C389.724579,532.240784 400.074890,532.612915 410.384186,532.122559 
	C418.565308,531.733459 426.696198,530.288452 434.989105,529.295532 
	C433.937134,533.001526 432.558472,537.858582 431.122314,542.918091 
	C403.160004,542.918091 375.402557,542.918091 348.388672,542.918091 
	C348.758453,537.487122 349.441406,532.005737 349.455139,526.522644 
	C349.549805,488.692200 349.576538,450.861084 349.418304,413.031067 
	C349.397430,408.037628 348.203888,403.049072 347.534943,397.916168 
	C350.896240,397.916168 355.206848,397.916168 360.014282,397.916168 
z"/>
<path fill="#FCFCFC" opacity="1.000000" stroke="none" 
	d="
M367.941895,171.000000 
	C368.516144,180.677200 366.531006,190.010468 369.734070,199.242111 
	C364.357544,199.242111 359.087982,199.242111 354.552063,199.242111 
	C354.912933,192.488327 355.542694,185.672363 355.591370,178.852264 
	C355.732910,159.033691 355.758575,139.212418 355.582581,119.394409 
	C355.514435,111.718117 354.783051,104.047722 354.347931,96.269623 
	C358.749023,96.269623 364.350616,96.269623 369.970551,96.269623 
	C365.991394,111.979759 368.606171,127.819954 368.004211,143.521179 
	C367.659912,152.501724 367.941895,161.506256 367.941895,171.000000 
z"/>
<path fill="#F7F7F7" opacity="1.000000" stroke="none" 
	d="
M100.230362,488.983337 
	C94.176216,482.948273 94.147644,481.598541 99.111595,475.017242 
	C99.718857,474.212128 99.425926,472.728027 99.550156,471.558594 
	C98.308784,471.818481 96.782555,471.711975 95.882950,472.411407 
	C93.741379,474.076477 92.210777,476.931427 89.864738,477.844269 
	C85.149910,479.678711 82.287682,475.887543 79.155899,472.905151 
	C79.948105,471.262604 80.678581,469.646179 81.494881,468.074371 
	C84.063507,463.128265 87.976585,462.201569 92.607597,465.173004 
	C93.875298,465.986420 95.556740,466.154999 97.048302,466.619476 
	C97.263283,466.075470 97.478271,465.531433 97.693253,464.987396 
	C94.108032,462.378571 89.168671,460.478973 87.324722,456.958191 
	C85.539146,453.548920 86.937592,448.472046 86.937592,444.065308 
	C89.919434,444.695496 92.496071,445.134918 95.014359,445.796448 
	C98.994110,446.841827 101.353081,449.252197 101.110497,453.642517 
	C101.018974,455.298706 100.701935,457.015564 101.032021,458.590698 
	C101.193947,459.363434 102.677048,460.445160 103.420189,460.343964 
	C104.150070,460.244568 105.219887,458.841461 105.249481,457.979889 
	C105.594063,447.949463 105.550209,447.951263 115.406654,445.591309 
	C116.038994,445.439911 116.644539,445.176575 117.500587,444.883942 
	C117.868500,447.775665 118.480141,450.486420 118.496208,453.200745 
	C118.520287,457.268585 116.965919,460.330627 112.285545,460.728271 
	C111.157181,460.824127 109.810593,460.989532 109.021706,461.660614 
	C108.310455,462.265564 108.225456,463.606781 107.864258,464.623291 
	C108.860779,464.855225 109.973633,465.485352 110.829353,465.235352 
	C112.556953,464.730621 114.106796,463.217316 115.799950,463.095886 
	C117.931984,462.942963 120.940956,463.038574 122.115051,464.340485 
	C123.838356,466.251434 125.707962,469.979797 124.904335,471.745636 
	C123.805138,474.160980 120.427841,476.443054 117.700577,476.921478 
	C115.606415,477.288879 112.928696,474.905579 110.681496,473.476593 
	C110.002426,473.044800 110.145943,471.299225 109.468597,470.889496 
	C108.371269,470.225677 106.907021,470.168427 105.597687,469.855042 
	C105.454842,471.200165 104.943535,472.650055 105.286667,473.856964 
	C105.557289,474.808838 107.426880,475.339996 107.633553,476.269775 
	C108.277657,479.167572 109.679398,482.837494 108.510239,484.944489 
	C107.231766,487.248535 105.058502,491.473267 100.230362,488.983337 
z"/>
<path fill="#F8F8F8" opacity="1.000000" stroke="none" 
	d="
M514.430725,459.375793 
	C511.010864,461.479614 507.840759,463.311005 504.670624,465.142365 
	C504.786316,465.632355 504.902039,466.122375 505.017731,466.612366 
	C506.301178,466.672333 507.788940,467.188812 508.835907,466.720306 
	C517.486267,462.849335 517.726074,462.884369 522.320496,471.354645 
	C522.626648,471.919128 522.953247,472.472534 524.013916,474.340851 
	C520.280029,475.920349 516.604370,478.903778 513.488953,478.402832 
	C510.182526,477.871155 507.407898,474.032196 503.397949,470.838684 
	C503.229401,472.473633 502.467346,474.233612 503.044830,475.142365 
	C508.367401,483.518433 508.131775,485.180267 500.173950,490.806335 
	C492.552979,485.667572 491.425537,483.550568 493.918915,478.443573 
	C494.544312,477.162598 495.902802,476.255615 496.642242,475.009399 
	C497.258881,473.970093 497.753326,472.677368 497.719757,471.513672 
	C497.704254,470.975800 496.026215,469.874817 495.580292,470.078156 
	C494.374146,470.628113 493.053284,471.536652 492.434753,472.663483 
	C489.127014,478.690002 485.808502,479.034302 480.115662,475.322296 
	C475.563721,472.354218 477.603973,469.648621 479.031342,466.550568 
	C480.673218,462.987061 483.576385,462.432587 486.951294,463.580719 
	C488.503540,464.108795 489.858337,465.302460 491.425690,465.670624 
	C492.448822,465.910950 493.693024,465.210052 494.838226,464.930786 
	C494.235168,463.885956 493.688171,461.970032 493.020569,461.927063 
	C483.028595,461.283783 483.423767,454.811890 484.782318,447.703613 
	C484.873199,447.227997 484.794189,446.719940 484.794189,445.815735 
	C487.566101,446.210175 490.301147,446.379242 492.919861,447.022034 
	C497.172272,448.065826 498.762451,451.719910 497.739258,456.996613 
	C497.522369,458.114990 497.715973,459.414703 498.105377,460.491699 
	C498.235535,460.851685 500.027405,461.136871 500.260803,460.836151 
	C500.999084,459.885010 501.794647,458.641724 501.797546,457.509460 
	C501.821716,447.990845 501.826294,447.950684 511.131165,445.932068 
	C512.371338,445.662994 513.527954,445.008453 516.124268,443.974487 
	C515.594482,449.526031 515.137451,454.314667 514.430725,459.375793 
z"/>
<path fill="#ED1F30" opacity="1.000000" stroke="none" 
	d="
M1005.973572,375.376038 
	C995.718750,374.311554 989.233459,368.342285 988.085266,359.322998 
	C986.927490,350.228912 991.554321,341.375366 999.044189,338.352570 
	C1008.616272,334.489410 1019.163147,339.650604 1022.499512,349.830658 
	C1026.046997,360.654572 1019.791382,372.663177 1009.373230,374.988342 
	C1008.405762,375.204285 1007.399109,375.244629 1005.973572,375.376038 
z"/>
<path fill="#ED1F30" opacity="1.000000" stroke="none" 
	d="
M907.511108,345.766144 
	C913.802185,337.294617 923.338745,335.105011 931.287048,340.050293 
	C939.516602,345.170532 942.468140,356.542480 937.908630,365.563110 
	C933.632996,374.022308 924.574402,377.808838 916.177185,374.646851 
	C907.188477,371.262115 902.452515,360.789825 905.401428,350.666779 
	C905.861633,349.086639 906.651489,347.602539 907.511108,345.766144 
z"/>
<path fill="#ED1F31" opacity="1.000000" stroke="none" 
	d="
M1090.581299,269.800720 
	C1094.051514,282.150665 1088.932861,293.137695 1078.731323,295.974121 
	C1070.060791,298.384888 1061.250000,293.793213 1057.842529,285.088226 
	C1054.141235,275.632629 1058.057983,264.243134 1066.445435,260.072449 
	C1074.528320,256.053253 1083.956299,258.847473 1089.036987,266.795044 
	C1089.570190,267.629120 1089.950928,268.560608 1090.581299,269.800720 
z"/>
<path fill="#ED2133" opacity="1.000000" stroke="none" 
	d="
M894.611206,199.222260 
	C896.958679,199.730621 899.008667,199.945877 900.785645,200.758423 
	C905.373657,202.856354 907.195618,208.535172 904.954529,213.057358 
	C903.078369,216.843140 895.387451,220.388748 892.137207,218.702652 
	C891.295898,218.266220 890.705627,216.617523 890.662292,215.499969 
	C890.494507,211.175385 890.701294,206.836807 890.555176,202.510635 
	C890.462708,199.771683 891.736267,198.940399 894.611206,199.222260 
z"/>
<path fill="#EE2435" opacity="1.000000" stroke="none" 
	d="
M902.742371,187.112762 
	C901.386597,194.276230 898.498474,196.190918 890.302673,195.569199 
	C890.302673,190.528152 890.302673,185.468964 890.302673,180.462128 
	C898.397217,179.115997 900.783875,180.361679 902.742371,187.112762 
z"/>
<path fill="#ED1F31" opacity="1.000000" stroke="none" 
	d="
M982.114563,185.336975 
	C982.124390,193.303452 978.367554,196.084686 969.862183,194.634949 
	C969.862183,189.956100 969.862183,185.230438 969.862183,180.547485 
	C976.299072,178.371384 979.625305,179.590469 982.114563,185.336975 
z"/>
<path fill="#ED2234" opacity="1.000000" stroke="none" 
	d="
M874.881104,269.916199 
	C874.881714,266.126404 874.881714,262.817383 874.881714,259.607300 
	C882.042175,257.235992 886.994873,259.549042 887.677429,265.350983 
	C888.343811,271.015411 881.374573,276.442474 876.216248,274.066101 
	C875.384155,273.682800 875.306763,271.661255 874.881104,269.916199 
z"/>
<path fill="#010101" opacity="1.000000" stroke="none" 
	d="
M199.110611,326.333679 
	C201.310104,346.721619 187.640411,358.141998 169.848450,361.857361 
	C162.642365,363.362122 155.368896,363.842194 148.144867,360.954437 
	C148.144867,340.311249 148.144867,319.722321 148.144867,298.339264 
	C163.462341,296.864807 178.349258,296.690796 190.793945,307.719208 
	C196.109573,312.429932 198.415344,318.865234 199.110611,326.333679 
z"/>
<path fill="#040404" opacity="1.000000" stroke="none" 
	d="
M147.330475,265.999695 
	C147.330475,255.867599 147.330475,246.235443 147.330475,235.314346 
	C156.037979,236.030853 164.585968,235.771957 172.647491,237.627060 
	C184.232819,240.293106 190.949524,250.946487 190.494629,263.302826 
	C190.027557,275.989685 183.463882,284.578217 171.055634,286.939911 
	C163.487839,288.380280 155.616028,288.223358 147.330460,288.823730 
	C147.330460,280.740967 147.330460,273.620300 147.330475,265.999695 
z"/>
<path fill="#020202" opacity="1.000000" stroke="none" 
	d="
M400.744171,242.188278 
	C400.077667,238.084641 401.594635,236.253952 405.223450,235.531998 
	C414.824982,233.621811 424.170624,234.314026 432.894592,238.734726 
	C442.122528,243.410812 444.091400,252.139420 444.317535,261.522064 
	C444.548828,271.119263 440.126617,278.151398 431.929688,282.729584 
	C422.412872,288.044922 412.057587,288.636017 400.744171,287.547150 
	C400.744171,272.471222 400.744171,257.568024 400.744171,242.188278 
z"/>
</svg>